<?xml version="1.0" standalone="no"?>
<!DOCTYPE svg PUBLIC "-//W3C//DTD SVG 20010904//EN"
 "http://www.w3.org/TR/2001/REC-SVG-20010904/DTD/svg10.dtd">
<svg version="1.0" xmlns="http://www.w3.org/2000/svg"
 width="300.000000pt" height="300.000000pt" viewBox="0 0 300.000000 300.000000"
 preserveAspectRatio="xMidYMid meet">
<metadata>
Created by potrace 1.10, written by Peter Selinger 2001-2011
</metadata>
<g transform="translate(0.000000,300.000000) scale(0.050000,-0.050000)"
fill="#000000" stroke="none">
<path d="M43 5835 c3 -105 5 -111 12 -36 5 58 22 101 49 125 l42 36 -53 0
c-52 0 -53 -2 -50 -125z"/>
<path d="M305 5948 c18 -17 275 -20 275 -3 0 8 -64 15 -143 15 -79 0 -138 -5
-132 -12z"/>
<path d="M776 5945 c47 -4 119 -4 160 0 40 5 2 8 -86 8 -88 0 -122 -3 -74 -8z"/>
<path d="M4226 5947 c15 -15 195 -13 210 2 6 6 -42 11 -106 11 -64 0 -111 -6
-104 -13z"/>
<path d="M4950 5939 c-36 -9 -5 -11 80 -4 77 6 144 14 148 18 16 13 -167 2
-228 -14z"/>
<path d="M5313 5940 c38 -15 248 -29 297 -19 57 11 301 -7 307 -23 11 -31 38
-19 49 22 10 40 2 41 -343 38 -209 -1 -336 -9 -310 -18z"/>
<path d="M1610 5742 c-57 -24 35 -38 124 -20 38 8 67 5 71 -7 4 -11 88 -24
188 -27 99 -4 205 -16 235 -27 72 -28 81 -26 53 7 -27 33 237 56 291 26 16 -9
28 -7 28 5 0 12 10 21 21 21 12 0 17 -7 11 -17 -5 -9 30 -14 79 -12 75 3 89
-3 89 -34 0 -20 9 -37 20 -37 11 0 18 11 15 24 -3 14 18 25 49 26 30 1 61 8
68 15 7 8 31 4 53 -8 31 -16 36 -15 24 4 -12 20 11 23 101 13 66 -7 133 -3
155 8 26 15 46 14 65 -2 28 -24 167 -17 240 12 37 14 38 13 10 -22 -20 -25
-21 -32 -4 -22 15 9 53 5 86 -9 46 -19 72 -19 110 -2 30 14 45 15 38 3 -7 -11
2 -20 19 -20 17 0 31 10 31 22 0 13 18 18 44 11 24 -6 54 -3 67 8 26 22 89 5
89 -23 0 -10 14 -18 30 -18 17 0 30 16 30 35 1 30 3 31 20 5 16 -25 20 -23 20
10 1 36 4 36 26 8 13 -17 37 -27 52 -22 16 5 22 0 14 -12 -11 -18 20 -20 108
-5 6 1 -3 11 -20 23 -23 16 -17 18 27 9 34 -8 69 -2 89 13 18 15 26 16 18 3
-8 -13 5 -27 31 -34 24 -6 48 -4 54 6 24 39 121 32 121 -9 0 -38 41 -38 91 -1
48 37 91 39 84 6 -3 -17 27 -27 91 -31 101 -7 138 -42 96 -92 -18 -21 -14 -29
18 -38 24 -6 40 -27 40 -52 0 -27 13 -42 35 -42 27 -1 29 -5 8 -18 -22 -13
-22 -18 1 -27 22 -8 28 12 28 87 0 54 -7 98 -15 98 -9 0 -11 14 -4 30 6 17 1
30 -11 30 -12 0 -22 11 -22 25 0 75 -135 104 -483 107 -193 1 -337 -6 -337
-16 0 -10 -11 -11 -25 -3 -34 21 -2635 29 -2685 9z"/>
<path d="M1220 5725 c-38 -4 -79 -15 -90 -24 -22 -18 -140 -48 -193 -50 -18 0
-53 -19 -77 -41 l-45 -40 9 -1672 c9 -1668 12 -1744 67 -1690 36 36 37 65 4
79 -14 5 -9 11 12 11 30 2 33 8 15 30 -18 21 -17 34 4 55 31 31 37 101 10 119
-24 15 3 121 26 107 10 -6 18 3 18 21 0 18 -7 28 -17 22 -21 -13 -17 50 6 86
12 20 10 24 -9 12 -20 -13 -24 1 -15 65 6 45 1 91 -10 102 -14 14 -7 17 22 10
25 -7 43 -2 43 11 0 12 -13 22 -28 22 -43 0 -52 49 -20 110 20 40 22 63 7 81
-15 18 -15 29 0 38 12 8 21 22 21 33 0 11 -8 15 -18 9 -25 -15 -39 79 -17 118
10 19 13 47 7 63 -7 19 -3 25 12 16 16 -10 18 -3 6 24 -9 21 -17 58 -18 83 -1
25 -9 45 -18 45 -9 0 -9 11 -1 25 35 56 49 248 22 302 -10 20 -12 51 -4 70 23
52 27 83 9 83 -25 0 -9 142 19 159 19 12 18 21 -3 43 -33 36 -41 218 -9 218
15 1 14 6 -3 17 -31 20 -37 72 -17 148 7 30 7 55 -2 55 -25 0 -14 107 12 116
31 10 30 58 -2 71 -20 8 -20 10 0 11 32 2 33 55 2 74 -16 10 -20 4 -11 -19 7
-18 4 -33 -7 -33 -25 0 -25 46 1 72 12 12 13 70 2 159 -14 114 -12 145 14 174
19 22 22 35 7 35 -38 0 -26 48 18 76 22 14 35 34 29 45 -7 11 2 34 20 52 25
25 32 26 29 5 -9 -64 0 -87 25 -62 33 33 63 30 50 -4 -7 -17 4 -32 27 -38 22
-6 39 -21 39 -33 0 -13 -9 -18 -20 -11 -11 7 -20 3 -20 -8 0 -11 20 -31 44
-44 40 -21 40 -25 10 -48 -42 -30 -43 -50 -4 -50 17 0 30 -13 30 -30 0 -17
-18 -30 -40 -30 -22 0 -40 -9 -40 -20 0 -11 15 -20 33 -20 19 0 28 -6 21 -13
-8 -7 -4 -25 9 -40 16 -20 15 -27 -4 -27 -14 0 -20 -6 -13 -13 8 -7 -2 -26
-21 -41 -32 -26 -32 -27 8 -16 36 10 42 3 40 -40 -2 -41 -11 -50 -43 -42 -38
9 -38 8 3 -26 24 -20 43 -48 42 -64 -4 -79 5 -108 25 -78 11 17 19 21 19 10 0
-32 -52 -91 -66 -76 -25 24 -12 -24 16 -61 16 -20 23 -50 17 -65 -5 -15 1 -28
14 -28 19 0 19 -7 0 -31 -20 -23 -21 -42 -3 -81 13 -28 16 -46 6 -40 -9 6 -16
-23 -15 -65 2 -68 7 -75 49 -67 36 7 40 14 20 28 -19 13 -10 16 28 10 45 -7
51 -4 32 19 -12 15 -17 33 -11 40 7 7 -8 29 -32 49 -26 22 -33 37 -18 37 15 1
20 11 12 24 -10 16 -4 20 19 11 18 -7 33 -3 33 9 0 11 -18 25 -39 31 -35 9
-36 15 -11 53 22 34 24 63 8 133 -14 62 -14 91 1 96 11 4 21 16 21 27 0 11 -9
14 -20 7 -11 -7 -20 -8 -20 -3 0 5 -5 24 -12 41 -9 23 1 33 35 34 35 2 38 5
11 12 -29 7 -31 15 -13 38 19 22 17 28 -12 28 -34 0 -34 2 2 28 35 26 36 36
14 94 -17 47 -18 70 -3 79 14 9 16 32 6 62 -25 75 -26 97 -4 97 11 0 15 14 8
31 -6 17 -1 48 12 68 18 29 18 50 1 88 -18 40 -17 55 6 74 16 13 30 21 31 16
0 -4 3 -34 6 -67 3 -33 12 -78 21 -100 12 -32 10 -34 -7 -10 -12 17 -21 21
-21 10 0 -11 13 -37 30 -59 23 -31 29 -32 29 -7 0 60 55 84 81 35 18 -34 18
-40 -1 -29 -31 19 -58 -23 -46 -71 11 -39 66 -71 66 -38 0 10 -7 19 -16 19 -8
0 -17 18 -19 40 -1 23 5 36 15 30 9 -6 23 -2 30 10 7 11 22 20 35 20 12 0 16
-6 9 -12 -24 -25 48 -72 97 -63 31 6 49 0 49 -15 0 -14 16 -31 35 -38 61 -22
135 -71 131 -88 -2 -8 12 -16 30 -17 19 -2 63 -12 99 -23 110 -36 85 42 -35
108 -38 21 -74 43 -80 48 -17 17 -167 101 -235 131 -36 16 -65 38 -65 49 0 11
-11 20 -25 20 -45 0 -135 100 -135 150 0 26 -10 54 -22 61 -16 10 -14 19 5 31
18 11 -3 17 -57 18 -71 0 -83 -5 -72 -33 9 -23 5 -29 -11 -19 -12 8 -23 4 -23
-8 0 -12 -8 -17 -18 -11 -10 6 -22 0 -27 -13 -5 -15 -12 -11 -21 10 -9 25 -2
34 27 34 21 0 39 9 39 20 0 11 -2 19 -5 17 -3 -2 -36 -7 -75 -12z"/>
<path d="M47 5550 c0 -88 3 -122 8 -74 4 47 4 119 0 160 -5 40 -8 2 -8 -86z"/>
<path d="M5165 5274 c-15 -34 -14 -55 6 -82 32 -43 17 -94 -23 -79 -15 6 -28
19 -28 29 0 9 15 11 34 4 31 -12 31 -10 5 19 -43 47 -75 -25 -42 -96 13 -28
23 -68 23 -88 0 -21 11 -42 25 -48 20 -8 20 -10 0 -11 -14 -1 -25 -21 -25 -43
0 -25 9 -36 22 -28 15 10 16 2 3 -24 -24 -50 -30 -167 -8 -167 10 0 23 -22 28
-50 5 -27 3 -50 -4 -50 -8 0 -14 -13 -14 -29 0 -16 7 -25 16 -19 10 6 17 -3
17 -18 0 -16 -19 -34 -42 -40 -23 -6 -38 -23 -34 -37 30 -88 -311 -113 -1614
-121 -1111 -7 -1513 3 -1526 41 -6 19 10 25 59 23 121 -7 217 0 217 15 0 8
-56 18 -125 21 -164 8 -265 30 -265 58 0 13 -6 29 -13 36 -29 28 -4 -46 33
-102 38 -56 39 -104 40 -1400 l0 -1343 178 -12 c769 -55 2474 3 2892 98 l140
32 0 1300 0 1299 45 45 c44 44 45 55 43 454 -1 504 -6 536 -63 413z m-122
-1039 c27 -482 4 -2401 -29 -2418 -22 -12 -34 -13 -27 -3 6 11 -1 41 -15 69
-14 27 -31 90 -38 139 -6 48 -21 142 -32 208 -23 130 -33 706 -14 851 6 49 16
125 21 169 5 44 18 130 29 190 10 61 15 246 10 412 -10 350 0 428 55 428 24 0
38 -15 40 -45z m-743 -5 c28 2 99 -12 158 -33 134 -46 136 -46 92 3 -35 39
-35 40 2 42 21 1 80 6 132 10 52 4 100 -2 106 -13 8 -12 26 -12 51 2 42 22 44
19 48 -65 1 -29 -5 -49 -13 -43 -30 18 -16 -28 16 -54 27 -23 28 -30 3 -48
-29 -21 -40 -91 -14 -91 8 0 19 -20 26 -45 9 -37 -1 -32 -56 28 -38 40 -72 70
-76 65 -19 -19 12 -128 47 -165 31 -33 34 -51 17 -94 -16 -44 -13 -59 16 -81
21 -16 25 -27 10 -27 -14 -1 -25 -11 -25 -22 0 -12 9 -16 20 -9 11 7 20 2 20
-11 0 -14 -20 -20 -50 -14 -57 11 -74 -91 -25 -144 20 -21 20 -24 0 -13 -15 9
-25 3 -25 -15 0 -16 14 -34 31 -41 20 -7 25 -21 15 -37 -23 -36 -20 -235 4
-235 11 0 10 -7 -2 -15 -15 -10 -23 -95 -23 -235 1 -480 -10 -539 -96 -518
-49 12 -112 -39 -145 -117 -20 -47 -18 -55 9 -55 17 0 27 11 21 26 -12 31 24
82 71 99 41 16 81 -45 63 -94 -8 -21 -1 -31 22 -31 28 0 31 13 20 83 -10 58
-8 78 8 68 12 -7 22 -44 22 -82 0 -38 9 -69 20 -69 11 0 20 9 20 19 0 11 12
15 27 10 49 -19 29 -63 -25 -55 -50 7 -50 6 -7 -13 51 -22 60 -61 15 -61 -16
0 -30 -10 -30 -22 0 -12 13 -17 30 -11 17 7 38 -5 52 -30 17 -33 17 -38 -3
-26 -18 11 -22 6 -14 -16 16 -41 -83 -129 -141 -125 -24 2 -44 -4 -44 -13 0
-10 -9 -17 -20 -17 -11 0 -20 16 -20 35 0 49 -74 165 -105 165 -17 -1 -18 -5
-3 -15 26 -17 88 -133 88 -164 0 -40 -36 -21 -47 26 -22 87 -106 103 -176 33
-33 -33 -54 -69 -47 -80 7 -11 3 -20 -9 -20 -11 0 -22 16 -22 35 -2 30 -4 29
-19 -5 -12 -28 -18 -31 -21 -10 -1 17 -10 8 -19 -20 -14 -44 -17 -41 -21 30
l-4 80 -13 -68 c-20 -112 -72 -97 -100 28 -57 253 -389 267 -469 20 -13 -39
-13 -39 17 -1 16 21 30 44 30 50 1 32 141 101 206 101 71 0 92 -14 169 -108
30 -36 34 -172 5 -172 -11 0 -20 27 -20 61 0 198 -284 212 -343 17 -27 -89
-42 -96 -73 -33 l-21 45 -2 -47 c-1 -40 -6 -44 -31 -23 -16 13 -24 34 -17 45
8 12 4 15 -9 7 -12 -7 -16 -29 -9 -48 11 -30 9 -31 -23 -5 -32 26 -38 25 -54
-3 -21 -37 -98 -26 -98 15 0 149 -310 123 -364 -31 -17 -49 -42 -6 -28 49 12
50 27 67 102 121 27 19 31 29 12 29 -16 1 -62 -35 -104 -79 -42 -44 -90 -80
-107 -80 -17 0 -31 -7 -31 -15 0 -8 -31 -16 -69 -16 -38 -1 -64 5 -59 15 6 9
-4 16 -22 16 -18 0 -27 -9 -20 -20 7 -11 -2 -20 -19 -20 -17 0 -31 9 -31 20 0
11 -17 20 -38 20 -21 0 -42 10 -46 23 -6 17 -20 16 -54 -2 -59 -32 -69 -20
-39 51 27 67 31 79 35 113 2 17 9 16 22 -5 17 -26 19 -26 20 1 0 17 -11 42
-24 55 -19 19 -19 24 0 24 13 0 22 11 19 25 -3 17 21 25 73 25 71 0 79 5 81
54 6 131 177 221 316 166 20 -8 35 -5 35 7 0 89 -229 42 -332 -68 -72 -78 -81
-82 -73 -39 31 163 339 242 486 125 58 -47 119 -151 119 -204 0 -31 9 -48 20
-41 47 29 -49 236 -120 260 -16 6 -52 29 -80 52 l-50 41 50 -13 c28 -8 77 -31
110 -53 58 -39 58 -38 -7 23 -71 67 -53 65 -288 28 -30 -5 -55 1 -55 12 0 11
-25 18 -55 16 -135 -9 -165 1 -147 49 9 25 12 59 7 75 -6 17 4 13 22 -10 36
-45 38 -34 15 85 -14 72 -12 85 16 85 24 1 26 5 6 17 -38 24 -48 143 -11 143
16 0 24 9 17 20 -7 12 -23 15 -34 7 -14 -8 -16 -4 -8 10 8 13 23 18 33 12 11
-6 19 -2 19 10 0 11 -13 21 -30 21 -16 0 -30 14 -30 30 0 17 -10 30 -21 30
-12 0 -16 9 -9 20 7 12 23 15 36 7 13 -7 17 -6 9 3 -8 9 -1 38 15 63 38 58 24
61 -27 6 l-38 -41 0 51 c0 28 10 51 23 51 12 0 -5 18 -38 40 -33 22 -51 40
-40 40 52 0 24 98 -37 130 -61 32 -61 32 -8 21 64 -14 64 -15 24 66 -33 66
-69 99 -69 64 0 -11 -9 -21 -20 -21 -11 0 2 36 30 80 54 85 62 120 29 120 -12
0 -16 -9 -9 -20 15 -24 -36 -80 -72 -80 -15 0 -9 13 13 30 32 24 34 33 12 47
-30 20 101 75 132 56 8 -5 15 17 16 48 1 57 0 57 -40 24 -43 -36 -102 -73
-196 -120 -67 -34 -69 -19 15 -171 172 -313 269 -805 210 -1065 -10 -44 -23
-128 -28 -186 -21 -234 -282 -681 -341 -585 -6 10 -45 14 -86 8 l-75 -10 0
1262 -1 1262 566 -1 c346 0 565 -8 565 -20 0 -10 10 -19 21 -19 12 0 16 8 10
18 -6 9 23 18 64 18 41 0 243 5 449 10 271 7 376 3 383 -13 5 -15 20 -12 44
11 21 20 45 28 58 18 11 -9 44 -15 71 -12z m-1480 -1818 c0 -5 -47 -47 -105
-95 -78 -64 -97 -74 -73 -37 37 58 178 162 178 132z m1176 -530 c-1 -7 5 -28
13 -47 23 -53 0 -90 -67 -105 -124 -27 -200 49 -128 127 33 36 187 57 182 25z
m534 -50 c31 -22 34 -33 14 -57 -13 -16 -20 -33 -15 -38 5 -5 -20 -11 -57 -13
-118 -8 -109 118 9 134 6 1 28 -11 49 -26z m-1265 -48 c16 -13 33 -19 39 -13
6 6 17 -4 23 -21 9 -23 3 -31 -22 -27 -19 3 -47 -1 -61 -10 -15 -10 -40 -5
-59 10 -27 23 -30 23 -16 -1 11 -19 8 -24 -11 -18 -40 13 -48 76 -9 76 17 0
31 8 31 18 0 24 49 16 85 -14z"/>
<path d="M4640 4081 c0 -25 14 -42 35 -43 19 0 25 -5 12 -11 -12 -5 -18 -27
-12 -49 10 -39 11 -39 40 3 28 40 26 47 -22 92 -51 47 -53 47 -53 8z"/>
<path d="M2695 3905 c-70 -34 -69 -47 5 -89 33 -19 60 -26 60 -16 0 9 -18 23
-40 30 -22 7 -40 21 -40 31 0 10 12 13 27 7 15 -6 34 5 41 24 17 45 12 46 -53
13z"/>
<path d="M3825 3866 c36 -9 45 -30 22 -53 -8 -7 -30 2 -50 20 -21 18 -37 27
-37 19 0 -22 54 -72 79 -72 11 0 21 -10 21 -21 0 -12 -7 -17 -16 -11 -9 5 -29
1 -45 -10 -23 -16 -21 -18 11 -14 23 4 39 -6 40 -22 0 -16 10 -32 21 -36 12
-4 22 20 22 54 0 33 -8 60 -17 60 -10 0 -8 17 3 37 24 45 9 64 -47 61 -34 -2
-35 -4 -7 -12z"/>
<path d="M4070 3683 c33 -9 83 -28 110 -42 46 -24 48 -23 19 7 -18 18 -67 37
-110 42 -68 8 -71 7 -19 -7z"/>
<path d="M3706 3627 c20 -19 194 -23 182 -4 -6 9 -52 17 -103 17 -50 0 -86 -6
-79 -13z"/>
<path d="M4133 3600 c46 -20 93 -53 104 -73 12 -21 22 -26 22 -13 1 34 -125
126 -171 125 -23 -1 -5 -16 45 -39z"/>
<path d="M3710 3563 c-92 -30 -204 -155 -185 -206 6 -17 19 -5 33 31 44 111
118 156 238 145 91 -9 103 -6 83 18 -25 30 -98 35 -169 12z"/>
<path d="M3940 3559 c-24 -16 -20 -19 20 -16 155 11 260 -52 260 -157 0 -27 8
-43 19 -37 32 20 -15 138 -74 186 -58 48 -172 60 -225 24z"/>
<path d="M4412 3529 c-11 -28 55 -169 79 -169 11 0 -14 66 -37 95 -11 14 -13
32 -6 40 8 8 23 1 33 -16 10 -16 19 -19 19 -7 0 46 -74 94 -88 57z"/>
<path d="M3702 3473 c-85 -49 -129 -180 -84 -251 18 -28 62 -14 62 20 0 11 -8
15 -18 9 -25 -15 -42 36 -28 87 6 24 27 42 48 42 25 0 38 14 38 42 0 34 6 38
27 20 16 -12 44 -17 64 -9 24 9 31 6 21 -10 -8 -12 -5 -23 7 -23 11 0 21 -20
21 -45 0 -43 2 -43 37 10 20 30 44 48 53 40 9 -8 9 -3 1 12 -12 21 -6 24 29
13 35 -11 41 -8 29 13 -12 19 -6 19 20 -3 21 -16 42 -27 49 -22 31 20 74 -109
54 -163 -19 -51 -28 -58 -65 -53 -7 1 -19 -10 -28 -23 -17 -28 -117 35 -118
75 -1 13 -10 29 -21 36 -11 7 -14 -1 -8 -19 7 -17 3 -31 -8 -31 -10 0 -24 -17
-29 -39 -9 -32 -26 -37 -102 -33 -99 5 -108 -17 -14 -38 35 -7 78 -2 105 13
61 34 136 36 136 3 0 -52 123 -15 174 52 113 147 -65 372 -212 269 -32 -23
-50 -26 -60 -10 -22 36 -128 45 -180 16z"/>
<path d="M3324 3385 c-24 -29 -44 -66 -44 -82 0 -16 23 5 51 47 60 88 55 113
-7 35z"/>
<path d="M4360 3431 c0 -7 19 -33 41 -57 44 -46 48 -194 9 -284 -16 -36 -14
-37 16 -13 66 54 34 333 -41 358 -14 5 -25 3 -25 -4z"/>
<path d="M4328 3330 c22 -33 25 -50 9 -50 -14 0 -8 -16 13 -40 20 -22 26 -40
14 -40 -13 0 -18 -13 -11 -30 7 -18 0 -30 -16 -30 -17 0 -30 -23 -32 -55 l-4
-55 50 56 c78 89 57 294 -31 294 -18 0 -15 -14 8 -50z"/>
<path d="M3377 3312 c-46 -62 -50 -113 -14 -181 l32 -58 0 53 c0 30 -8 54 -18
54 -23 0 18 78 62 119 18 17 29 29 24 26 -5 -2 -19 3 -31 13 -14 12 -34 2 -55
-26z"/>
<path d="M4222 3278 c-4 -56 -64 -157 -105 -180 -22 -12 -36 -26 -30 -31 41
-42 166 133 147 206 -7 28 -10 30 -12 5z"/>
<path d="M4691 3257 c10 -31 7 -38 -12 -26 -19 11 -22 6 -12 -19 7 -20 14 -50
15 -69 2 -18 10 -6 18 27 23 90 22 130 -1 130 -13 0 -16 -17 -8 -43z"/>
<path d="M2925 3217 c8 -21 1 -38 -19 -46 -28 -10 -27 -16 4 -51 28 -31 30
-40 8 -41 -21 0 -19 -7 7 -27 43 -32 45 -52 6 -52 -16 0 -34 -8 -40 -18 -6
-10 7 -14 29 -8 53 14 69 41 42 74 -12 14 -16 32 -8 39 7 7 -4 28 -25 45 -33
26 -33 29 -5 21 50 -16 64 22 23 62 -31 31 -33 32 -22 2z"/>
<path d="M4675 3024 c-5 -41 -16 -91 -25 -112 -11 -26 -10 -34 5 -25 12 7 28
43 36 78 8 36 21 70 29 75 9 6 4 21 -10 34 -21 19 -28 9 -35 -50z"/>
<path d="M3400 2820 c-23 -14 -25 -27 -9 -53 29 -47 69 -58 69 -19 0 20 -11
26 -33 18 -22 -9 -29 -4 -22 16 5 15 20 26 33 23 12 -3 22 4 22 15 0 25 -21
25 -60 0z"/>
<path d="M4275 2565 c-28 -6 -31 -16 -14 -48 16 -29 15 -48 -5 -72 -14 -18
-16 -27 -3 -19 33 20 49 -38 27 -91 -18 -42 -19 -42 -15 -3 3 23 -3 43 -13 45
-10 2 -19 -23 -20 -55 -1 -32 4 -55 11 -50 7 4 17 -10 23 -32 6 -22 2 -40 -8
-40 -10 0 -17 -16 -16 -35 1 -21 5 -25 11 -10 8 18 18 16 42 -7 30 -30 29 -35
-7 -65 -21 -18 -35 -31 -30 -28 5 2 21 -6 36 -18 43 -36 47 -17 49 252 1 260
-6 290 -68 276z"/>
<path d="M3915 2532 c-49 -37 -44 -44 36 -46 38 -1 84 -13 100 -27 17 -14 36
-19 42 -12 7 7 -27 30 -75 53 -48 22 -67 35 -40 28 32 -8 43 -5 33 10 -18 29
-53 27 -96 -6z"/>
<path d="M4404 2528 c-22 -24 -11 -28 70 -28 107 1 171 26 118 47 -18 6 -32 4
-32 -6 0 -19 -105 -18 -120 2 -5 7 -22 0 -36 -15z"/>
<path d="M3745 2467 c-36 -18 -65 -41 -65 -52 0 -12 10 -11 26 2 15 12 58 35
95 52 38 16 56 30 39 30 -16 0 -59 -14 -95 -32z"/>
<path d="M3776 2419 c-40 -21 -80 -49 -88 -63 -8 -13 17 -4 56 20 39 24 85 44
103 44 18 0 33 9 33 20 0 28 -19 24 -104 -21z"/>
<path d="M3216 2402 c25 -22 64 -61 87 -86 40 -45 40 -45 -1 17 l-41 62 52 0
c28 0 42 -6 31 -13 -13 -8 -11 -30 8 -62 28 -49 28 -48 23 30 -5 73 -115 136
-115 65 0 -9 -20 -7 -45 5 l-45 22 46 -40z"/>
<path d="M4031 2403 c71 -44 119 -111 146 -205 11 -40 20 -52 21 -28 3 105
-117 270 -197 270 -17 0 -4 -17 30 -37z"/>
<path d="M3870 2380 c-32 -14 -26 -17 34 -19 68 -1 219 -113 213 -158 -5 -37
5 -63 23 -63 31 0 0 99 -48 155 -75 87 -150 116 -222 85z"/>
<path d="M4631 2382 c-6 -10 19 -22 54 -27 73 -11 85 -7 66 24 -16 25 -104 28
-120 3z"/>
<path d="M3747 2325 c-70 -57 -150 -254 -87 -215 11 7 20 31 20 53 0 22 32 71
70 108 93 91 91 129 -3 54z"/>
<path d="M3080 2282 c0 -11 11 -27 25 -36 24 -16 98 -134 96 -156 -1 -5 6 -8
14 -5 18 6 14 23 -27 110 -29 63 -108 127 -108 87z"/>
<path d="M3260 2294 c0 -4 15 -38 33 -74 18 -36 35 -85 37 -108 3 -23 6 -53 7
-67 2 -14 19 -25 38 -25 28 1 29 4 7 18 -21 14 -11 33 45 88 40 39 73 78 73
87 -1 9 -19 -5 -40 -33 -43 -54 -79 -33 -80 45 0 19 -9 35 -20 35 -25 0 -25
-5 0 -69 11 -29 11 -51 1 -51 -10 0 -28 31 -41 70 -19 57 -60 115 -60 84z"/>
<path d="M3815 2278 c-36 -20 -95 -119 -95 -157 0 -47 80 -4 88 46 12 82 105
111 172 53 25 -22 36 -40 23 -40 -40 0 -25 -35 21 -47 60 -16 66 -5 36 67 -39
94 -154 131 -245 78z"/>
<path d="M2880 2242 c-62 -17 -150 -140 -121 -169 14 -14 34 -7 62 23 24 26
30 44 16 44 -14 0 -7 13 14 29 76 58 209 13 209 -70 0 -26 14 -39 40 -39 80 0
13 145 -82 178 -70 24 -67 24 -138 4z"/>
<path d="M3515 2158 c-19 -21 -26 -39 -15 -40 79 -10 90 -5 94 42 2 29 -1 35
-7 15 -5 -19 -18 -35 -28 -35 -10 0 -13 14 -6 30 15 39 5 36 -38 -12z"/>
<path d="M4085 2018 c30 -23 55 -53 55 -67 0 -14 15 -38 33 -54 31 -25 31 -23
8 23 -35 67 -103 140 -129 139 -12 0 3 -19 33 -41z"/>
<path d="M3000 1912 c-59 -53 -108 -132 -82 -132 11 0 25 18 32 39 7 22 36 58
64 81 29 22 48 44 44 49 -4 4 -30 -13 -58 -37z"/>
<path d="M3160 1920 c0 -12 20 -16 45 -10 25 7 78 -5 120 -27 58 -30 75 -32
75 -12 0 15 -17 37 -39 48 -50 27 -201 27 -201 1z"/>
<path d="M47 5130 c0 -99 3 -142 8 -96 4 47 4 128 0 180 -4 53 -8 15 -8 -84z"/>
<path d="M4797 5150 c-5 -5 -31 -13 -58 -17 -30 -5 -48 -20 -46 -40 1 -18 -6
-28 -15 -22 -10 6 -18 4 -18 -5 0 -9 -24 -17 -53 -19 -29 -2 -60 -15 -69 -30
-13 -20 -17 -21 -18 -2 0 14 -13 25 -30 25 -16 0 -30 -9 -30 -20 0 -12 -18
-12 -50 0 -48 18 -59 12 -52 -27 2 -10 -11 -12 -29 -5 -18 6 -50 12 -72 12
-22 0 -34 9 -27 20 8 13 -5 13 -37 1 -27 -10 -56 -12 -64 -5 -9 8 -10 4 -2 -9
8 -15 -13 -26 -59 -31 -42 -5 -76 1 -81 14 -10 26 -147 14 -147 -14 0 -10 -15
-4 -33 14 -19 19 -38 25 -45 14 -7 -11 -37 -17 -67 -14 -31 4 -56 -3 -56 -17
-1 -13 -10 -5 -19 17 -9 22 -18 28 -19 13 -1 -20 -16 -23 -56 -12 -30 8 -85
13 -122 11 -36 -2 -61 5 -55 14 6 10 -19 15 -56 11 -41 -4 -76 4 -90 21 -18
21 -42 23 -107 9 -57 -13 -86 -13 -91 2 -9 27 -144 28 -144 1 0 -11 15 -20 32
-20 18 0 74 -13 125 -29 294 -94 949 -138 1283 -87 216 32 262 42 272 59 6 9
37 17 70 17 33 0 56 7 51 16 -6 9 34 31 88 51 105 37 135 74 46 57 -37 -7 -49
-3 -39 13 14 23 7 32 -11 13z"/>
<path d="M2287 5125 c10 -16 4 -25 -15 -25 -46 0 -56 -34 -13 -46 57 -15 91
33 47 68 -22 19 -29 20 -19 3z"/>
<path d="M2700 5122 c0 -9 16 -22 35 -27 19 -6 51 -17 70 -25 21 -8 35 -5 35
8 0 12 -17 22 -39 22 -21 0 -44 9 -51 20 -15 25 -50 26 -50 2z"/>
<path d="M5915 5091 c-5 -30 1 -53 18 -59 19 -8 27 7 27 49 0 71 -32 79 -45
10z"/>
<path d="M5056 5011 c-4 -39 -1 -71 8 -71 9 0 16 -10 16 -22 0 -12 -13 -17
-28 -11 -16 6 -34 -4 -41 -23 -7 -18 -7 -26 1 -19 21 21 68 -24 68 -66 0 -20
-23 -54 -51 -76 -64 -51 -64 -68 4 -75 40 -4 47 0 30 17 -28 28 -30 62 -3 45
11 -7 20 2 20 19 0 17 8 31 18 31 29 0 22 275 -7 300 -21 16 -28 6 -35 -49z"/>
<path d="M46 4810 c0 -66 4 -91 8 -55 5 36 5 90 0 120 -4 30 -8 1 -8 -65z"/>
<path d="M3290 4380 l-100 -14 116 -3 c73 -2 112 4 104 17 -7 11 -14 19 -16
17 -2 -2 -49 -9 -104 -17z"/>
<path d="M3475 4384 c-73 -15 -31 -38 60 -33 52 3 111 6 131 7 20 1 31 10 25
21 -11 17 -141 21 -216 5z"/>
<path d="M3720 4380 c0 -11 22 -20 49 -20 27 0 54 9 61 20 7 12 -13 20 -49 20
-33 0 -61 -9 -61 -20z"/>
<path d="M1738 4315 c-1 -14 -5 -61 -7 -105 -2 -44 -11 -114 -20 -155 -10 -47
-8 -75 5 -75 11 0 23 -31 28 -69 4 -37 0 -63 -10 -58 -16 10 -72 -48 -73 -76
-1 -7 16 -17 38 -22 31 -9 37 -27 35 -100 -3 -59 -12 -87 -27 -81 -13 5 -29
-1 -36 -13 -7 -11 1 -21 19 -21 18 0 27 -9 20 -20 -7 -11 -3 -20 9 -20 13 0
17 -22 10 -55 -9 -42 -7 -48 9 -25 19 26 21 25 22 -4 0 -19 -20 -53 -44 -75
-37 -35 -38 -41 -10 -41 42 0 50 -171 9 -185 -39 -13 -40 -295 0 -295 18 0 25
-12 18 -30 -7 -17 -3 -53 7 -80 22 -57 6 -66 -30 -17 -22 30 -25 30 -37 -1 -7
-19 -6 -30 2 -25 9 5 33 -4 55 -21 28 -21 32 -33 15 -40 -34 -13 -31 -57 6
-95 25 -24 26 -31 5 -31 -30 0 -25 -153 6 -192 22 -27 3 -49 -31 -35 -16 5
-30 -11 -35 -41 -6 -29 0 -54 15 -59 25 -10 27 -248 2 -289 -8 -11 -6 -24 4
-27 42 -17 45 -117 3 -117 -48 0 -52 -25 -9 -61 21 -17 27 -43 19 -74 -8 -35
-5 -44 12 -34 16 10 19 7 9 -10 -15 -24 18 -60 54 -61 26 0 15 2781 -12 2823
-26 43 -52 48 -55 12z"/>
<path d="M1271 4202 c-7 -12 -2 -22 13 -23 15 0 10 -9 -11 -22 -31 -17 -33
-25 -10 -39 38 -24 97 -22 97 3 0 36 -75 104 -89 81z"/>
<path d="M1238 4028 c-44 -49 -45 -52 -7 -40 38 11 41 4 38 -88 -2 -56 5 -106
15 -113 11 -6 -2 -33 -27 -60 -31 -33 -36 -45 -14 -37 32 13 62 -16 70 -65 2
-14 -5 -25 -15 -25 -10 0 -18 -10 -18 -21 0 -13 18 -16 45 -8 61 19 61 20 35
69 -22 41 -20 42 23 19 46 -25 47 -24 10 17 -22 24 -50 36 -68 29 -20 -7 -15
5 13 33 27 27 58 40 79 33 18 -6 11 6 -17 28 -27 22 -62 40 -77 41 -22 0 -21
10 5 49 34 53 36 151 3 151 -12 0 -7 9 9 20 25 16 23 19 -12 20 -22 0 -63 -24
-90 -52z"/>
<path d="M63 4020 c-4 -5 -10 -104 -14 -220 -5 -145 -1 -199 13 -175 11 19 17
118 13 220 -4 102 -9 181 -12 175z"/>
<path d="M5908 3988 c7 -17 12 -49 12 -70 0 -21 9 -38 20 -38 11 0 20 32 20
70 0 51 -9 70 -32 70 -21 0 -28 -11 -20 -32z"/>
<path d="M1306 3441 c-20 -55 -19 -63 5 -53 16 6 29 2 29 -9 0 -10 10 -19 22
-19 16 0 17 8 2 25 -11 14 -23 46 -27 72 -7 45 -9 44 -31 -16z"/>
<path d="M1213 3027 c-21 -21 -16 -38 28 -88 22 -26 36 -57 32 -70 -18 -45 19
-76 60 -50 30 20 31 22 3 13 -19 -5 -40 -2 -47 9 -6 10 -2 19 10 19 34 0 25
27 -30 85 -28 31 -46 64 -39 75 14 23 3 27 -17 7z"/>
<path d="M1197 2641 c-41 -34 -42 -40 -11 -40 20 -1 31 -10 24 -21 -7 -11 -2
-20 10 -20 12 0 19 16 16 35 -3 19 5 33 18 30 14 -3 20 8 13 25 -14 38 -13 38
-70 -9z"/>
<path d="M1185 2361 c-28 -46 -13 -101 27 -101 15 0 28 -9 28 -20 0 -11 -10
-20 -23 -20 -13 0 -18 -6 -10 -14 7 -7 32 7 55 32 27 28 32 43 15 41 -69 -9
-80 1 -67 61 15 70 9 75 -25 21z"/>
<path d="M1193 2119 c-20 -20 -31 -46 -24 -58 8 -12 18 -50 22 -84 11 -86 29
-98 29 -18 0 48 7 62 28 54 28 -10 63 42 42 63 -5 6 -10 0 -10 -13 0 -12 -20
-23 -45 -23 -36 1 -39 4 -15 20 22 14 23 19 4 20 -15 0 -21 9 -14 20 7 12 21
15 31 9 11 -6 19 -2 19 9 0 37 -30 37 -67 1z"/>
<path d="M772 2063 c-8 -13 -21 -20 -29 -15 -8 5 -28 1 -44 -9 -20 -13 -21
-18 -4 -19 14 0 25 -18 25 -40 0 -22 8 -40 17 -40 9 0 18 -38 20 -84 3 -90 29
-135 53 -96 8 14 3 32 -12 42 -23 14 -23 17 2 18 27 1 27 3 0 20 -20 13 -22
19 -5 20 16 0 24 28 24 75 -2 95 -26 162 -47 128z"/>
<path d="M40 1901 c0 -107 8 -161 25 -168 20 -8 20 -10 0 -11 -15 -1 -25 -30
-25 -70 0 -38 11 -73 25 -79 20 -8 20 -10 0 -11 -33 -2 -34 -142 -1 -142 19 0
19 -5 0 -24 -40 -40 -33 -464 7 -448 18 6 26 3 19 -8 -7 -11 -3 -20 9 -20 11
0 21 -14 21 -31 0 -17 9 -26 20 -19 11 7 31 5 45 -3 59 -37 77 -20 26 24 -31
26 -64 43 -74 37 -9 -6 -17 8 -17 30 0 22 9 45 20 52 11 7 19 23 18 36 -1 17
-4 17 -11 -1 -16 -39 -61 -29 -73 15 -6 22 -2 40 9 40 11 0 14 8 8 19 -6 10
-2 24 10 31 13 9 14 22 3 37 -34 43 -41 133 -10 133 20 0 23 9 9 34 -12 21
-12 53 -1 81 10 27 10 43 0 36 -10 -6 -22 7 -28 28 -5 22 0 42 11 46 14 5 12
22 -4 53 -20 37 -19 51 6 79 19 21 24 44 14 63 -14 25 -15 83 -4 143 2 7 23 9
48 5 42 -8 41 -7 -5 17 -37 19 -48 38 -44 77 4 34 -5 57 -25 65 -26 10 -31
-12 -31 -146z"/>
<path d="M469 2004 c6 -6 1 -23 -12 -37 -18 -22 -14 -26 21 -21 72 11 92 47
33 59 -29 5 -48 5 -42 -1z"/>
<path d="M1058 1667 c-25 -66 -11 -262 22 -295 60 -59 121 148 77 262 -35 93
-71 105 -99 33z"/>
<path d="M5169 1490 c9 -22 16 -56 15 -75 -1 -19 7 -35 17 -35 32 0 21 94 -15
123 -30 24 -32 23 -17 -13z"/>
<path d="M867 1075 c-46 -74 -14 -541 40 -580 58 -42 54 -75 -8 -75 -45 0 -51
-25 -13 -57 160 -132 669 -159 1804 -95 330 18 985 55 1456 81 818 45 914 57
914 111 0 8 -20 12 -45 10 -68 -8 -453 -28 -745 -40 -143 -6 -327 -15 -410
-21 -82 -6 -267 -15 -410 -20 -143 -6 -296 -13 -340 -17 -87 -8 -383 -27 -650
-42 -227 -13 -425 -28 -693 -52 -329 -30 -669 75 -832 257 -33 36 -33 45 -5
117 29 73 29 75 -2 38 -32 -39 -32 -39 -20 15 7 32 4 55 -7 55 -11 0 -17 27
-13 60 4 34 -2 67 -14 73 -12 8 -7 23 14 38 29 21 31 32 10 66 -21 32 -21 46
1 71 16 20 18 32 5 32 -12 0 -29 -11 -37 -25z"/>
<path d="M4004 1016 c-222 -33 -624 -280 -624 -383 0 -69 224 -4 386 111 35
25 69 46 74 47 33 3 142 76 175 117 25 32 47 43 65 32 14 -9 38 -12 53 -6 15
6 27 1 27 -10 0 -11 19 -15 42 -9 24 6 50 -1 62 -17 11 -16 23 -19 28 -8 12
28 141 21 178 -10 24 -20 37 -21 55 -3 13 13 37 22 54 22 22 -1 19 -7 -9 -19
-40 -17 -40 -17 0 -20 22 -2 60 -6 84 -8 24 -3 40 2 34 11 -6 10 -2 17 9 17
11 0 23 -11 28 -24 4 -13 34 -26 66 -29 33 -2 66 -4 74 -5 8 -1 15 -17 15 -34
0 -24 7 -27 25 -13 15 12 43 14 68 4 61 -23 78 -59 27 -59 -23 0 -37 -8 -31
-19 6 -10 34 -14 61 -9 50 9 69 -18 30 -42 -13 -8 -14 -25 -3 -44 10 -18 13
-48 8 -69 -5 -20 0 -37 13 -37 12 0 22 8 22 18 0 10 16 16 35 15 48 -4 86 141
44 167 -15 10 -22 24 -14 32 7 7 -24 41 -71 74 -46 33 -88 66 -94 73 -74 90
-717 178 -996 137z"/>
<path d="M3170 928 c-419 -79 -1083 -283 -1172 -361 -17 -15 -37 -21 -45 -14
-7 8 -13 3 -13 -9 0 -32 97 -22 109 12 7 17 26 22 53 13 27 -8 49 -3 60 14 14
22 17 22 18 -1 0 -20 16 -14 53 20 29 26 47 37 39 23 -8 -14 -5 -25 7 -25 11
0 21 9 21 20 0 12 42 18 99 15 54 -4 98 -1 97 4 -3 36 7 43 31 24 21 -18 35
-13 63 17 38 42 82 56 59 18 -8 -12 9 -7 38 12 28 18 72 37 97 41 57 9 191 41
251 60 28 8 45 5 45 -9 0 -12 9 -22 20 -22 11 0 18 11 15 24 -3 15 25 24 75
25 44 1 91 9 105 18 14 8 25 10 25 3 0 -7 25 1 55 18 30 16 105 48 165 70
l110 40 -110 -1 c-60 0 -227 -22 -370 -49z"/>
<path d="M1167 846 c3 -47 93 -71 93 -25 0 12 -8 16 -19 10 -10 -6 -24 -3 -31
9 -7 11 -3 20 9 20 11 0 21 7 21 16 0 8 -17 15 -38 15 -26 0 -36 -13 -35 -45z"/>
<path d="M5947 670 c0 -88 3 -122 8 -74 4 47 4 119 0 160 -5 40 -8 2 -8 -86z"/>
<path d="M1160 765 c1 -22 39 -78 40 -58 0 10 16 6 35 -9 29 -22 31 -22 12 0
-13 15 -19 39 -13 54 7 18 -4 28 -32 28 -23 0 -42 -7 -42 -15z"/>
<path d="M277 733 c16 -18 45 -33 65 -33 26 0 33 -10 24 -32 -9 -26 -3 -30 28
-20 31 10 44 3 52 -29 6 -24 20 -38 30 -31 23 14 69 -36 50 -55 -7 -7 1 -13
18 -13 16 0 59 -14 94 -32 35 -17 75 -34 88 -36 13 -2 45 -15 71 -29 42 -24
44 -23 26 10 -17 33 -173 186 -173 171 0 -3 -36 10 -80 29 -44 19 -86 33 -94
31 -7 -2 -19 14 -25 34 -14 42 -85 69 -96 37 -4 -13 -24 -12 -56 5 -45 24 -47
24 -22 -7z"/>
<path d="M1375 648 c-31 -16 -65 -24 -75 -18 -11 7 -20 3 -20 -9 0 -11 10 -21
22 -21 17 0 17 -8 0 -28 -18 -21 -16 -30 7 -39 20 -7 31 0 31 19 0 16 24 52
53 79 61 56 58 59 -18 17z"/>
<path d="M5140 183 c0 -20 -6 -43 -14 -50 -25 -26 -22 -71 6 -95 16 -13 35
-18 42 -11 7 7 2 13 -12 13 -18 0 -21 25 -11 90 7 50 8 90 1 90 -6 0 -12 -17
-12 -37z"/>
</g>
</svg>
