<?xml version="1.0" standalone="no"?>
<!DOCTYPE svg PUBLIC "-//W3C//DTD SVG 20010904//EN"
 "http://www.w3.org/TR/2001/REC-SVG-20010904/DTD/svg10.dtd">
<svg version="1.0" xmlns="http://www.w3.org/2000/svg"
 width="300.000000pt" height="210.000000pt" viewBox="0 0 300.000000 210.000000"
 preserveAspectRatio="xMidYMid meet">
<metadata>
Created by potrace 1.10, written by Peter Selinger 2001-2011
</metadata>
<g transform="translate(0.000000,210.000000) scale(0.100000,-0.100000)"
fill="#000000" stroke="none">
<path d="M2489 1949 l-27 -10 35 -82 c85 -203 141 -421 159 -619 l7 -78 32 0
32 0 -9 63 c-36 271 -68 404 -138 587 -54 138 -59 150 -62 149 -2 0 -15 -5
-29 -10z"/>
<path d="M2140 1793 c-37 -14 -40 -24 -19 -64 63 -125 139 -415 139 -534 0
-34 2 -35 36 -35 l36 0 -7 53 c-23 183 -62 344 -111 462 -14 33 -31 75 -36 93
-12 33 -13 34 -38 25z"/>
<path d="M1863 1662 c-39 -18 -40 -29 -11 -85 31 -61 77 -227 90 -329 l12 -88
41 0 41 0 -8 68 c-15 126 -59 288 -110 398 l-23 52 -32 -16z m51 -99 c49 -126
102 -373 79 -373 -5 0 -17 43 -26 95 -17 92 -57 231 -91 308 -13 30 -14 37 -3
37 8 0 26 -30 41 -67z"/>
<path d="M1588 1539 c-21 -11 -38 -21 -38 -23 0 -2 13 -35 29 -72 27 -64 52
-159 66 -246 6 -38 6 -38 55 -38 30 0 50 4 50 11 0 61 -62 281 -103 367 -12
26 -11 26 -59 1z m65 -91 c52 -143 70 -258 42 -258 -18 0 -16 -6 -45 120 -13
52 -31 115 -42 139 -14 33 -16 47 -7 57 19 23 25 17 52 -58z"/>
<path d="M1305 1409 l-51 -25 21 -50 c12 -27 28 -77 35 -111 l13 -63 59 0 60
0 -7 33 c-17 85 -38 156 -58 197 l-22 45 -50 -26z m66 -77 c10 -29 21 -73 25
-98 l7 -46 -29 4 c-25 3 -30 9 -40 53 -7 28 -19 66 -27 85 -15 33 -14 36 6 47
32 18 39 13 58 -45z"/>
<path d="M430 1408 c-274 -97 -371 -407 -200 -635 122 -161 374 -206 560 -101
61 35 137 125 166 197 22 55 26 81 26 159 0 85 -3 100 -33 160 -41 84 -118
160 -204 203 -56 27 -78 32 -158 36 -77 3 -102 0 -157 -19z m265 -33 c68 -19
165 -92 202 -152 43 -69 53 -107 54 -205 1 -78 -2 -94 -29 -150 -60 -128 -143
-190 -281 -212 -145 -23 -273 14 -360 103 -71 72 -95 128 -99 228 -5 102 9
168 48 231 32 52 116 123 175 148 82 34 188 37 290 9z"/>
<path d="M472 1355 c-29 -8 -66 -22 -82 -30 -42 -22 -114 -100 -146 -159 -25
-45 -28 -62 -29 -141 0 -80 3 -96 30 -149 35 -70 96 -132 168 -172 48 -27 60
-29 152 -29 92 0 104 2 150 29 80 46 128 90 156 142 80 152 58 301 -62 422
-83 84 -220 120 -337 87z m236 -50 c57 -26 108 -76 150 -145 24 -40 27 -55 27
-135 -1 -140 -45 -213 -171 -285 -54 -31 -66 -34 -144 -35 -75 0 -92 3 -140
29 -71 37 -125 89 -158 151 -24 44 -27 61 -27 141 1 79 4 96 27 135 54 91 133
150 228 170 55 12 150 -1 208 -26z"/>
<path d="M326 1135 c-3 -11 -6 -30 -6 -41 0 -20 3 -21 38 -13 20 5 69 9 107 9
l70 -1 -113 -109 -113 -110 244 0 244 0 10 33 10 34 -46 -3 c-25 -2 -77 -5
-114 -8 l-68 -4 88 90 c48 49 90 94 92 101 2 6 13 18 23 27 17 14 -4 15 -221
15 -231 0 -240 -1 -245 -20z m404 -21 c0 -4 -36 -45 -81 -91 -47 -50 -78 -91
-75 -99 4 -11 -13 -14 -86 -14 l-91 0 76 79 c76 78 86 94 67 106 -28 17 -1 25
90 25 55 0 100 -3 100 -6z"/>
<path d="M1077 1305 c-26 -13 -50 -25 -52 -27 -3 -2 4 -29 14 -59 l19 -54 61
-3 c34 -2 61 1 61 6 0 15 -39 135 -47 148 -6 8 -23 4 -56 -11z m52 -56 c18
-52 15 -61 -21 -57 -25 2 -34 9 -41 32 -8 24 -6 32 9 43 28 20 41 16 53 -18z"/>
<path d="M1050 1088 c0 -5 4 -8 9 -8 4 0 23 -38 41 -85 l33 -85 77 0 77 0 23
70 c13 39 27 67 31 63 4 -5 17 -36 29 -71 l23 -63 76 3 75 3 28 74 c15 41 32
79 37 84 19 19 12 26 -23 24 -32 -2 -34 -5 -52 -64 -19 -62 -34 -82 -34 -44 0
10 -9 38 -19 61 l-19 43 -83 0 -83 0 -21 -60 -20 -60 -23 51 c-12 28 -22 56
-22 61 0 6 -33 10 -80 10 -44 0 -80 -3 -80 -7z m166 -88 l31 -60 -47 0 -47 0
-22 51 c-11 29 -21 56 -21 60 0 5 17 9 38 9 35 0 39 -3 68 -60z m255 8 c12
-29 25 -56 27 -60 2 -5 -16 -8 -41 -8 -44 0 -45 0 -66 51 -11 29 -21 56 -21
60 0 5 17 9 39 9 37 0 39 -2 62 -52z"/>
<path d="M1652 1080 c-3 -8 -6 -17 -8 -20 -1 -3 49 -3 112 -2 69 2 114 0 114
-6 0 -5 -47 -11 -106 -14 -90 -3 -108 -6 -120 -23 -21 -29 -17 -71 8 -89 28
-20 197 -23 216 -4 9 9 12 9 12 0 0 -8 22 -12 68 -12 l67 0 -5 75 c-3 48 -10
80 -21 90 -23 23 -329 27 -337 5z m312 -26 c12 -5 16 -20 16 -60 l0 -54 -44 0
-44 0 -4 43 c-7 65 21 92 76 71z m-214 -85 c0 -25 -4 -29 -29 -29 -44 0 -61
10 -61 35 0 19 6 24 33 27 47 5 57 -1 57 -33z m120 1 c0 -29 -2 -30 -44 -30
-36 0 -46 4 -51 20 -10 31 2 40 51 40 42 0 44 -1 44 -30z"/>
<path d="M2039 1050 c20 -25 45 -58 55 -73 40 -64 45 -67 126 -67 82 0 92 6
124 68 8 16 31 50 50 75 l34 45 -43 0 c-24 -1 -43 -4 -42 -8 3 -8 -66 -129
-74 -130 -5 0 -59 69 -88 114 -12 19 -23 21 -96 21 l-83 1 37 -46z m146 -32
c61 -71 62 -78 16 -78 -37 0 -44 5 -81 51 -22 28 -40 55 -40 60 0 5 15 9 34 9
28 0 41 -8 71 -42z"/>
<path d="M2473 1088 c-36 -10 -43 -24 -43 -90 0 -85 7 -88 206 -88 158 0 162
0 167 22 4 12 4 24 2 27 -3 2 -5 -1 -5 -7 0 -9 -33 -12 -109 -12 -107 0 -121
4 -121 36 0 2 54 4 120 4 l120 0 0 44 c0 26 -6 48 -14 55 -17 14 -279 21 -323
9z m79 -58 c3 -16 3 -43 0 -60 -4 -26 -8 -30 -36 -30 -43 0 -56 16 -56 65 0
51 4 55 51 55 33 0 37 -3 41 -30z m124 8 c2 -15 -6 -18 -52 -18 -38 0 -54 4
-54 13 0 23 12 28 59 25 33 -2 45 -7 47 -20z m102 -5 c3 -21 -1 -23 -37 -23
-37 0 -41 2 -41 26 0 23 3 25 38 22 30 -2 38 -7 40 -25z"/>
<path d="M1114 872 l-61 -3 -12 -38 c-6 -21 -11 -41 -11 -43 0 -6 102 -70 105
-66 5 6 46 150 43 152 -2 0 -30 0 -64 -2z m21 -59 c-10 -41 -21 -48 -49 -30
-37 24 -25 57 21 57 33 0 35 -1 28 -27z"/>
<path d="M1307 813 c-10 -38 -19 -76 -21 -85 -3 -9 -10 -26 -16 -37 -9 -18 -5
-23 39 -46 28 -14 52 -25 55 -25 8 0 42 101 55 160 24 112 29 100 -37 100
l-58 0 -17 -67z m93 16 c0 -18 -31 -132 -41 -151 -8 -15 -13 -16 -35 -6 -16 7
-24 18 -21 27 39 136 41 141 70 141 15 0 27 -5 27 -11z"/>
<path d="M1650 876 c0 -49 -63 -278 -90 -325 -6 -11 4 -20 39 -36 l46 -22 13
31 c33 79 92 300 92 347 0 5 -22 9 -50 9 -27 0 -50 -2 -50 -4z m60 -51 c0 -49
-56 -253 -75 -274 -8 -7 -20 -11 -29 -8 -13 5 -12 13 6 59 11 29 30 95 41 146
17 73 25 92 39 92 10 0 18 -7 18 -15z"/>
<path d="M1946 817 c-8 -83 -47 -234 -84 -329 l-30 -78 33 -20 c37 -23 45 -24
45 -9 0 6 6 25 14 42 37 81 88 270 101 372 4 28 9 58 12 68 4 14 -3 17 -40 17
l-44 0 -7 -63z m49 -29 c-14 -109 -73 -318 -100 -354 -22 -30 -27 -10 -10 37
38 102 66 199 81 281 17 96 41 124 29 36z"/>
<path d="M2256 808 c-12 -133 -84 -404 -132 -500 -13 -26 -13 -28 15 -42 l29
-15 26 58 c55 124 111 343 131 514 l6 57 -34 0 -34 0 -7 -72z"/>
<path d="M2655 803 c-16 -177 -74 -416 -143 -583 l-39 -96 24 -18 c14 -10 25
-16 26 -14 2 1 10 20 20 41 84 184 152 450 173 675 l7 72 -31 0 -30 0 -7 -77z"/>
</g>
</svg>
